#!OML:ASF F:\VICON\USERDATA\INSTALL\rory3\rory3.ASF
:FULLY-SPECIFIED
:DEGREES
2057
root 0.0661328 17.4707 0.711111 5.681 3.40148 -2.24787
lowerback -4.72876 -0.583588 -1.61327
upperback -4.53246 -0.706661 1.73087
thorax -1.97247 -0.282507 2.66512
lowerneck -10.3207 -10.9315 -18.3203
upperneck 25.4473 -16.3794 15.8095
head 13.1795 -7.54967 6.55307
rclavicle -8.69683e-016 1.76918e-014
rhumerus -396.965 0.844481 -448.633
rradius 23.6014
rwrist 27.9209
rhand -4.41258 14.1895
rfingers 7.12502
rthumb 21.3577 -14.6534
lclavicle -8.69683e-016 1.76918e-014
lhumerus 327.411 3.48895 -270.479
lradius 14.7616
lwrist -28.0924
lhand -7.56583 22.8646
lfingers 7.12502
lthumb 18.3266 52.0213
rfemur 2.98462 8.82475 20.6554
rtibia 9.54166e-015
rfoot -7.93182 -9.7748
rtoes -11.9833
lfemur -6.85169 -23.842 -14.3364
ltibia 15.1859
lfoot -14.3296 16.1262
ltoes -20.3336
2058
root 0.0697761 17.4691 0.712745 5.64284 3.38714 -2.27957
lowerback -4.70769 -0.553164 -1.56861
upperback -4.49339 -0.667924 1.72216
thorax -1.94644 -0.265124 2.63203
lowerneck -10.337 -10.9563 -18.3154
upperneck 25.3371 -16.4186 15.8789
head 13.1535 -7.55907 6.56702
rclavicle 3.63403e-015 1.11319e-014
rhumerus -396.886 1.03894 -448.682
rradius 23.6363
rwrist 27.6392
rhand -3.37047 14.5285
rfingers 7.12502
rthumb 22.3584 -14.1977
lclavicle 3.63403e-015 1.11319e-014
lhumerus 327.24 3.32925 -270.437
lradius 15.1916
lwrist -28.1237
lhand -7.22626 22.4594
lfingers 7.12502
lthumb 18.6532 51.5851
rfemur 3.00274 8.84184 20.6804
rtibia -4.77083e-015
rfoot -7.923 -9.77882
rtoes -11.6907
lfemur -6.80436 -23.8988 -14.3371
ltibia 15.2107
lfoot -14.4139 16.1373
ltoes -19.7773
2059
root 0.0725186 17.4685 0.714176 5.59252 3.38296 -2.36201
lowerback -4.67353 -0.535489 -1.52013
upperback -4.46556 -0.645855 1.75395
thorax -1.93804 -0.255225 2.63832
lowerneck -10.3518 -10.9759 -18.2587
upperneck 25.2748 -16.4306 15.8263
head 13.1214 -7.56313 6.52937
rclavicle 2.54693e-016 -2.20651e-014
rhumerus -396.811 1.18972 -448.667
rradius 23.665
rwrist 27.4537
rhand -2.56285 14.8782
rfingers 7.12502
rthumb 23.1334 -13.7529
lclavicle 2.54693e-016 -2.20651e-014
lhumerus 327.066 1.56069 -269.292
lradius 15.6664
lwrist -26.1162
lhand -7.47464 22.4852
lfingers 7.12502
lthumb 18.4143 51.6336
rfemur 3.05687 8.85342 20.7735
rtibia -9.54166e-015
rfoot -7.92904 -9.79224
rtoes -11.1822
lfemur -6.76491 -23.9179 -14.2693
ltibia 15.2538
lfoot -14.7113 15.9899
ltoes -18.3606
2060
root 0.0748256 17.4675 0.714896 5.58065 3.39108 -2.34765
lowerback -4.68058 -0.554049 -1.6122
upperback -4.44582 -0.667777 1.77714
thorax -1.9115 -0.26399 2.71321
lowerneck -10.3635 -10.9658 -18.1962
upperneck 25.2357 -16.4155 15.8104
head 13.0958 -7.55149 6.51328
rclavicle 9.78393e-015 5.06901e-015
rhumerus -396.746 1.48689 -448.711
rradius 23.7196
rwrist 27.2437
rhand -1.93953 15.0189
rfingers 7.12502
rthumb 23.7314 -13.5359
lclavicle 9.78393e-015 5.06901e-015
lhumerus 326.853 0.141601 -268.338
lradius 16.1556
lwrist -24.5479
lhand -7.79615 22.1853
lfingers 7.12502
lthumb 18.105 51.3627
rfemur 3.08929 8.84328 20.753
rtibia 4.77083e-015
rfoot -7.96479 -9.79612
rtoes -11.6607
lfemur -6.77779 -23.8757 -14.2967
ltibia 15.2889
lfoot -14.825 15.9457
ltoes -18.2691
2061
root 0.077406 17.4672 0.716033 5.54386 3.42282 -2.27765
lowerback -4.62197 -0.566569 -1.71255
upperback -4.45716 -0.68241 1.75187
thorax -1.95448 -0.268437 2.74383
lowerneck -10.345 -10.9512 -18.1652
upperneck 25.2652 -16.4166 15.835
head 13.1038 -7.54775 6.52061
rclavicle 1.28899e-014 2.83268e-014
rhumerus -396.775 1.74079 -448.776
rradius 23.7969
rwrist 27.1961
rhand -1.37742 15.0066
rfingers 7.12502
rthumb 24.2704 -13.4771
lclavicle 1.28899e-014 2.83268e-014
lhumerus 326.543 -1.10716 -267.521
lradius 16.6681
lwrist -23.4191
lhand -8.04763 21.8205
lfingers 7.12502
lthumb 17.863 51.0201
rfemur 3.1428 8.80393 20.6771
rtibia 4.77083e-015
rfoot -8.01646 -9.78211
rtoes -12.1725
lfemur -6.74443 -23.8494 -14.4018
ltibia 15.2918
lfoot -14.7957 15.9229
ltoes -18.5071
2062
root 0.0798312 17.466 0.717486 5.47988 3.47477 -2.27168
lowerback -4.54833 -0.587068 -1.75321
upperback -4.44663 -0.709277 1.76698
thorax -1.98256 -0.280357 2.7822
lowerneck -10.4149 -10.9565 -18.1733
upperneck 25.3359 -16.4202 15.8275
head 13.1487 -7.54675 6.51836
rclavicle 4.89507e-015 -1.98785e-016
rhumerus -396.772 2.00211 -448.761
rradius 23.9329
rwrist 27.2904
rhand -0.794508 14.926
rfingers 7.12502
rthumb 24.8292 -13.4819
lclavicle 4.89507e-015 -1.98785e-016
lhumerus 326.207 -2.4389 -266.592
lradius 17.2361
lwrist -22.115
lhand -8.2148 21.939
lfingers 7.12502
lthumb 17.7022 51.1532
rfemur 3.22377 8.75045 20.6762
rtibia 4.77083e-015
rfoot -8.0963 -9.74938
rtoes -11.7882
lfemur -6.64768 -23.8419 -14.4412
ltibia 15.2588
lfoot -14.6753 15.8713
ltoes -18.8342
